<svg width="138" height="59" viewBox="0 0 138 59" fill="none" xmlns="http://www.w3.org/2000/svg">
<mask id="mask0_713_22268" style="mask-type:alpha" maskUnits="userSpaceOnUse" x="0" y="16" width="18" height="21">
<path d="M0 16.3888H17.6881V36.5222H0V16.3888Z" fill="#008085"/>
</mask>
<g mask="url(#mask0_713_22268)">
<path d="M9.93289 36.5225C4.45609 36.5225 0.000244141 32.0067 0.000244141 26.4559C0.000244141 20.9052 4.45609 16.3889 9.93289 16.3889C12.8474 16.3889 15.6039 17.6793 17.4957 19.9294L15.2263 21.8888C13.9021 20.3138 11.9727 19.4106 9.93289 19.4106C6.09998 19.4106 2.98145 22.5708 2.98145 26.4559C2.98145 30.3406 6.09998 33.5007 9.93289 33.5007C12.0547 33.5007 14.0332 32.5373 15.3618 30.8563L17.6886 32.7456C15.7912 35.1457 12.9646 36.5225 9.93289 36.5225Z" fill="white"/>
</g>
<path d="M34.2921 25.1859H23.372C23.8509 21.9057 26.0801 19.6435 28.8815 19.6435C32.3535 19.6435 33.9394 22.4488 34.2921 25.1859ZM29.103 16.7693C24.0261 16.7693 20.1973 20.9824 20.1973 26.57C20.1973 32.1578 24.175 36.3715 29.45 36.3715C32.5675 36.3715 34.9165 35.2879 37.0664 32.8576L37.2591 32.6401L35.1675 30.7414L34.9745 30.9466C33.3811 32.6388 31.6478 33.4265 29.5199 33.4265C26.3565 33.4265 23.9807 31.2419 23.5214 27.9544H37.7079L37.73 27.6859C37.7653 27.252 37.7653 26.965 37.7653 26.7112C37.7653 20.7649 34.2841 16.7693 29.103 16.7693Z" fill="white"/>
<path d="M50.6081 16.7693C48.1539 16.7693 46.186 17.7432 44.7466 19.6667V17.157H41.4941V35.948H44.7466V25.2316C44.7466 22.0451 46.8429 19.8195 49.8439 19.8195C52.7747 19.8195 54.5242 21.7634 54.5242 25.0198V35.948H57.7769V24.3517C57.7769 19.7453 54.9629 16.7693 50.6081 16.7693Z" fill="white"/>
<path d="M67.8857 36.2744C68.7756 36.2744 69.7149 36.165 70.9293 35.9201L70.5807 33.0947C69.9684 33.1829 69.5768 33.225 69.0487 33.225C67.0096 33.225 66.0595 32.421 66.0595 30.6952V20.2012H71.6045V17.1985H66.0595V13.2551L62.6934 15.9066V30.3309C62.6934 34.3302 64.3916 36.2744 67.8857 36.2744Z" fill="white"/>
<mask id="mask1_713_22268" style="mask-type:alpha" maskUnits="userSpaceOnUse" x="0" y="0" width="138" height="37">
<path d="M0 36.5227H138V0H0V36.5227Z" fill="#008085"/>
</mask>
<g mask="url(#mask1_713_22268)">
<path d="M75.6426 35.9479H78.8951V17.1567H75.6426V35.9479Z" fill="white"/>
</g>
<mask id="mask2_713_22268" style="mask-type:alpha" maskUnits="userSpaceOnUse" x="0" y="0" width="138" height="37">
<path d="M0 36.5227H138V0H0V36.5227Z" fill="#008085"/>
</mask>
<g mask="url(#mask2_713_22268)">
<path d="M105.447 16.7693C102.805 16.7693 100.742 17.8667 99.1549 20.121C97.9503 17.9544 95.9089 16.7693 93.355 16.7693C90.5709 16.7693 88.9402 18.1586 87.8411 19.6012V17.157H84.5879V35.948H87.8411V25.2666C87.8411 22.1101 89.8238 19.8195 92.5559 19.8195C95.2689 19.8195 96.8889 21.7375 96.8889 24.9506V35.948H100.106V25.1614C100.106 21.4712 102.457 19.8195 104.787 19.8195C107.562 19.8195 109.154 21.7151 109.154 25.0198V35.948H112.407V24.3864C112.407 19.6881 109.74 16.7693 105.447 16.7693Z" fill="white"/>
</g>
<mask id="mask3_713_22268" style="mask-type:alpha" maskUnits="userSpaceOnUse" x="0" y="0" width="138" height="37">
<path d="M0 36.5227H138V0H0V36.5227Z" fill="#008085"/>
</mask>
<g mask="url(#mask3_713_22268)">
<path d="M130.299 25.1859H119.379C119.858 21.9065 122.086 19.6435 124.889 19.6435C128.36 19.6435 129.946 22.4488 130.299 25.1859ZM124.959 16.7693C119.881 16.7693 116.053 20.9824 116.053 26.57C116.053 32.1578 120.031 36.3715 125.307 36.3715C128.424 36.3715 130.772 35.2879 132.922 32.8576L133.114 32.6401L131.023 30.7414L130.83 30.9466C129.237 32.6388 127.503 33.4265 125.375 33.4265C122.211 33.4265 119.836 31.2419 119.377 27.9544H133.563L133.585 27.6859C133.621 27.252 133.621 26.965 133.621 26.7112C133.621 20.7649 130.14 16.7693 124.959 16.7693Z" fill="white"/>
</g>
<mask id="mask4_713_22268" style="mask-type:alpha" maskUnits="userSpaceOnUse" x="0" y="0" width="138" height="37">
<path d="M0 36.5227H138V0H0V36.5227Z" fill="#008085"/>
</mask>
<g mask="url(#mask4_713_22268)">
<path d="M133.602 18.9905C133.602 18.5903 133.693 18.2187 133.875 17.8759C134.058 17.5331 134.311 17.2632 134.634 17.066C134.958 16.8688 135.307 16.7703 135.682 16.7703C136.057 16.7703 136.405 16.8688 136.728 17.066C137.05 17.2632 137.302 17.5331 137.485 17.8759C137.667 18.2187 137.759 18.5903 137.759 18.9905C137.759 19.3809 137.671 19.7465 137.495 20.0873C137.319 20.4281 137.07 20.702 136.747 20.9091C136.423 21.1162 136.068 21.2197 135.682 21.2197C135.297 21.2197 134.943 21.1171 134.62 20.9121C134.296 20.707 134.046 20.434 133.868 20.0932C133.69 19.7524 133.602 19.3848 133.602 18.9905ZM133.938 18.9905C133.938 19.3313 134.017 19.6469 134.173 19.9372C134.329 20.2275 134.542 20.4548 134.81 20.6193C135.079 20.7838 135.369 20.866 135.682 20.866C135.996 20.866 136.288 20.7823 136.558 20.6148C136.827 20.4474 137.039 20.22 137.192 19.9327C137.345 19.6454 137.422 19.3313 137.422 18.9905C137.422 18.6517 137.345 18.3391 137.192 18.0528C137.039 17.7665 136.827 17.5406 136.558 17.3751C136.288 17.2097 135.996 17.1269 135.682 17.1269C135.369 17.1269 135.078 17.2087 134.809 17.3721C134.539 17.5356 134.327 17.762 134.171 18.0513C134.016 18.3406 133.938 18.6537 133.938 18.9905ZM135.251 19.2134V20.218H134.838V17.6946H135.646C135.945 17.6946 136.177 17.7595 136.342 17.8893C136.507 18.0191 136.59 18.2078 136.59 18.4555C136.59 18.6992 136.465 18.8855 136.215 19.0143C136.453 19.1134 136.573 19.3155 136.575 19.6206V19.8019C136.575 19.9723 136.592 20.0952 136.625 20.1705V20.218H136.2C136.173 20.1467 136.159 20.0194 136.159 19.8361C136.159 19.6528 136.156 19.5443 136.15 19.5107C136.119 19.3204 135.991 19.2214 135.767 19.2134H135.251ZM135.251 18.833H135.708C135.849 18.829 135.962 18.7944 136.048 18.729C136.134 18.6636 136.177 18.5774 136.177 18.4704C136.177 18.3257 136.139 18.2232 136.062 18.1628C135.986 18.1023 135.851 18.0721 135.655 18.0721H135.251V18.833Z" fill="white"/>
</g>
<mask id="mask5_713_22268" style="mask-type:alpha" maskUnits="userSpaceOnUse" x="0" y="0" width="138" height="37">
<path d="M0 36.5227H138V0H0V36.5227Z" fill="white"/>
</mask>
<g mask="url(#mask5_713_22268)">
<path d="M82.8634 0L67.8213 11.8613H73.8783L78.8955 7.90564V11.8613H82.8634V0Z" fill="#F6BD3E"/>
</g>
<path d="M5.375 58.9996C6.05729 58.9996 6.65365 58.9032 7.16406 58.7103C7.67448 58.5174 8.10677 58.2506 8.46094 57.9098C8.8151 57.569 9.09245 57.1647 9.29297 56.6971C9.49349 56.2295 9.625 55.7235 9.6875 55.1793H8.17969C8.11719 55.5862 8.02604 55.9494 7.90625 56.2691C7.78646 56.5888 7.61849 56.8583 7.40234 57.0776C7.1862 57.2968 6.91406 57.4646 6.58594 57.5809C6.25781 57.6971 5.85417 57.7552 5.375 57.7552C4.86979 57.7552 4.43229 57.6482 4.0625 57.4342C3.69271 57.2202 3.38802 56.927 3.14844 56.5544C2.90885 56.1819 2.73047 55.7473 2.61328 55.2506C2.49609 54.7539 2.4375 54.2229 2.4375 53.6575V52.4845C2.4375 51.8768 2.5026 51.3207 2.63281 50.8161C2.76302 50.3115 2.95703 49.8808 3.21484 49.5242C3.47266 49.1675 3.79297 48.8901 4.17578 48.6919C4.55859 48.4938 5.0026 48.3947 5.50781 48.3947C5.94531 48.3947 6.32031 48.4555 6.63281 48.577C6.94531 48.6985 7.20703 48.8729 7.41797 49.1001C7.62891 49.3273 7.79427 49.6021 7.91406 49.9244C8.03385 50.2467 8.1224 50.6087 8.17969 51.0103H9.6875C9.63021 50.4396 9.5 49.9178 9.29688 49.4449C9.09375 48.972 8.81901 48.5651 8.47266 48.2243C8.1263 47.8835 7.70573 47.618 7.21094 47.4277C6.71615 47.2375 6.14844 47.1424 5.50781 47.1424C4.80469 47.1424 4.17057 47.2705 3.60547 47.5268C3.04036 47.7831 2.5599 48.145 2.16406 48.6127C1.76823 49.0803 1.46354 49.643 1.25 50.3009C1.03646 50.9587 0.929688 51.6919 0.929688 52.5003V53.6575C0.929688 54.466 1.03516 55.1978 1.24609 55.853C1.45703 56.5082 1.75651 57.0696 2.14453 57.5373C2.53255 58.0049 3 58.3655 3.54688 58.6192C4.09375 58.8728 4.70312 58.9996 5.375 58.9996ZM14.1172 58.9996C14.3776 58.9996 14.625 58.9719 14.8594 58.9164C15.0938 58.8609 15.3112 58.7843 15.5117 58.6865C15.7122 58.5888 15.8971 58.4752 16.0664 58.3457C16.2357 58.2162 16.388 58.0802 16.5234 57.9375C16.5443 58.1119 16.5703 58.2797 16.6016 58.4408C16.6328 58.602 16.6745 58.7354 16.7266 58.8411H18.2422V58.7143C18.1432 58.4818 18.069 58.2057 18.0195 57.886C17.9701 57.5663 17.9453 57.2612 17.9453 56.9706V52.9838C17.9453 52.503 17.8672 52.0829 17.7109 51.7236C17.5547 51.3643 17.3385 51.0644 17.0625 50.824C16.7865 50.5836 16.4544 50.4039 16.0664 50.285C15.6784 50.1662 15.2552 50.1067 14.7969 50.1067C14.2865 50.1067 13.8242 50.182 13.4102 50.3326C12.9961 50.4832 12.6432 50.6787 12.3516 50.9191C12.0599 51.1595 11.8346 51.4303 11.6758 51.7315C11.5169 52.0327 11.4375 52.3365 11.4375 52.643H12.8906C12.8906 52.4633 12.9349 52.2916 13.0234 52.1278C13.112 51.964 13.2357 51.82 13.3945 51.6959C13.5534 51.5717 13.7448 51.4726 13.9688 51.3986C14.1927 51.3247 14.4401 51.2877 14.7109 51.2877C15.2995 51.2877 15.7448 51.4396 16.0469 51.7434C16.349 52.0472 16.5 52.4554 16.5 52.968V53.6417H15.0625C14.4844 53.6417 13.9609 53.7024 13.4922 53.824C13.0234 53.9455 12.6237 54.1252 12.293 54.3629C11.9622 54.6007 11.7083 54.8953 11.5312 55.2467C11.3542 55.5981 11.2656 56.0036 11.2656 56.4633C11.2656 56.8173 11.3333 57.1489 11.4688 57.458C11.6042 57.7671 11.7956 58.0353 12.043 58.2625C12.2904 58.4897 12.5898 58.6693 12.9414 58.8014C13.293 58.9335 13.6849 58.9996 14.1172 58.9996ZM14.3281 57.7235C14.0625 57.7235 13.8294 57.6852 13.6289 57.6086C13.4284 57.532 13.2591 57.4289 13.1211 57.2995C12.9831 57.17 12.8802 57.0155 12.8125 56.8358C12.7448 56.6562 12.7109 56.4633 12.7109 56.2572C12.7109 55.7288 12.9349 55.3339 13.3828 55.0723C13.8307 54.8107 14.4688 54.68 15.2969 54.68H16.5V56.4395C16.4219 56.6033 16.3138 56.7618 16.1758 56.9151C16.0378 57.0683 15.875 57.2044 15.6875 57.3233C15.5 57.4422 15.2917 57.5386 15.0625 57.6126C14.8333 57.6865 14.5885 57.7235 14.3281 57.7235ZM23.3203 58.9996C23.8099 58.9996 24.2552 58.9375 24.6562 58.8133C25.0573 58.6892 25.401 58.5161 25.6875 58.2942C25.974 58.0723 26.194 57.8054 26.3477 57.4937C26.5013 57.1819 26.5781 56.8385 26.5781 56.4633C26.5781 56.1146 26.5169 55.8081 26.3945 55.5439C26.2721 55.2797 26.0859 55.0459 25.8359 54.8424C25.5859 54.639 25.2708 54.4607 24.8906 54.3074C24.5104 54.1542 24.0625 54.0168 23.5469 53.8953C23.1458 53.8055 22.819 53.717 22.5664 53.6298C22.3138 53.5426 22.1146 53.4475 21.9688 53.3444C21.8229 53.2414 21.724 53.1265 21.6719 52.9997C21.6198 52.8729 21.5938 52.7302 21.5938 52.5717C21.5938 52.4132 21.625 52.2586 21.6875 52.108C21.75 51.9574 21.849 51.8227 21.9844 51.7038C22.1198 51.5849 22.293 51.4898 22.5039 51.4184C22.7148 51.3471 22.9714 51.3114 23.2734 51.3114C23.5599 51.3114 23.8125 51.355 24.0312 51.4422C24.25 51.5294 24.4349 51.643 24.5859 51.783C24.737 51.9231 24.8516 52.0816 24.9297 52.2586C25.0078 52.4356 25.0469 52.6113 25.0469 52.7857H26.5C26.5 52.4158 26.4271 52.0684 26.2812 51.7434C26.1354 51.4184 25.9232 51.1344 25.6445 50.8914C25.3659 50.6483 25.0273 50.4568 24.6289 50.3167C24.2305 50.1767 23.7786 50.1067 23.2734 50.1067C22.7995 50.1067 22.3698 50.1741 21.9844 50.3088C21.599 50.4436 21.2708 50.6259 21 50.8557C20.7292 51.0856 20.5195 51.3524 20.3711 51.6562C20.2227 51.9601 20.1484 52.2811 20.1484 52.6192C20.1484 52.9732 20.2188 53.2824 20.3594 53.5466C20.5 53.8108 20.7018 54.0393 20.9648 54.2322C21.2279 54.425 21.5469 54.5901 21.9219 54.7275C22.2969 54.8649 22.7188 54.9838 23.1875 55.0842C23.6042 55.174 23.9401 55.2718 24.1953 55.3774C24.4505 55.4831 24.6471 55.5981 24.7852 55.7222C24.9232 55.8464 25.0156 55.9785 25.0625 56.1185C25.1094 56.2585 25.1328 56.4078 25.1328 56.5663C25.1328 56.7407 25.0938 56.9032 25.0156 57.0538C24.9375 57.2044 24.8216 57.3352 24.668 57.4461C24.5143 57.5571 24.3255 57.6443 24.1016 57.7077C23.8776 57.7711 23.6172 57.8028 23.3203 57.8028C23.0911 57.8028 22.862 57.7764 22.6328 57.7235C22.4036 57.6707 22.1927 57.5809 22 57.454C21.8073 57.3272 21.6471 57.1621 21.5195 56.9587C21.3919 56.7552 21.3203 56.5029 21.3047 56.2017H19.8594C19.8594 56.5558 19.9349 56.9005 20.0859 57.2361C20.237 57.5716 20.4583 57.8702 20.75 58.1317C21.0417 58.3933 21.4023 58.6033 21.832 58.7618C22.2617 58.9203 22.7578 58.9996 23.3203 58.9996ZM29.9062 58.8411V52.7302C30.1042 52.318 30.3802 51.9852 30.7344 51.7315C31.0885 51.4779 31.5 51.3511 31.9688 51.3511C32.2448 51.3511 32.4883 51.3854 32.6992 51.4541C32.9102 51.5228 33.0872 51.6311 33.2305 51.7791C33.3737 51.927 33.4818 52.1186 33.5547 52.3537C33.6276 52.5888 33.6641 52.8729 33.6641 53.2057V58.8411H35.1094V53.2216C35.1094 52.6615 35.0456 52.1846 34.918 51.791C34.7904 51.3973 34.6094 51.075 34.375 50.824C34.1406 50.573 33.8568 50.3907 33.5234 50.2771C33.1901 50.1635 32.8177 50.1067 32.4062 50.1067C31.8854 50.1067 31.4141 50.2124 30.9922 50.4237C30.5703 50.6351 30.2083 50.9284 29.9062 51.3035V46.6669H28.4609V58.8411H29.9062ZM42.9609 58.8411V53.7447H47.7344V52.5003H42.9609V48.5532H48.5078V47.3009H41.4609V58.8411H42.9609ZM51.6484 58.8411V46.6669H50.2031V58.8411H51.6484ZM57.4297 58.9996C58.0234 58.9996 58.5573 58.89 59.0312 58.6707C59.5052 58.4514 59.9089 58.1476 60.2422 57.7592C60.5755 57.3708 60.8307 56.9111 61.0078 56.3801C61.1849 55.849 61.2734 55.2718 61.2734 54.6483V54.4739C61.2734 53.8504 61.1849 53.2731 61.0078 52.7421C60.8307 52.211 60.5755 51.75 60.2422 51.359C59.9089 50.968 59.5039 50.6615 59.0273 50.4396C58.5508 50.2177 58.013 50.1067 57.4141 50.1067C56.8255 50.1067 56.2943 50.2177 55.8203 50.4396C55.3464 50.6615 54.944 50.968 54.6133 51.359C54.2826 51.75 54.0273 52.211 53.8477 52.7421C53.668 53.2731 53.5781 53.8504 53.5781 54.4739V54.6483C53.5781 55.2718 53.668 55.849 53.8477 56.3801C54.0273 56.9111 54.2839 57.3708 54.6172 57.7592C54.9505 58.1476 55.3542 58.4514 55.8281 58.6707C56.3021 58.89 56.8359 58.9996 57.4297 58.9996ZM57.4297 57.8028C57.0286 57.8028 56.6784 57.7182 56.3789 57.5492C56.0794 57.3801 55.8294 57.1515 55.6289 56.8636C55.4284 56.5756 55.2786 56.2414 55.1797 55.8609C55.0807 55.4805 55.0312 55.0763 55.0312 54.6483V54.4739C55.0312 54.0512 55.0807 53.6483 55.1797 53.2652C55.2786 52.8821 55.4284 52.5466 55.6289 52.2586C55.8294 51.9706 56.0781 51.7408 56.375 51.569C56.6719 51.3973 57.0182 51.3114 57.4141 51.3114C57.8151 51.3114 58.1667 51.3973 58.4688 51.569C58.7708 51.7408 59.0221 51.9706 59.2227 52.2586C59.4232 52.5466 59.5742 52.8821 59.6758 53.2652C59.7773 53.6483 59.8281 54.0512 59.8281 54.4739V54.6483C59.8281 55.0763 59.7773 55.4805 59.6758 55.8609C59.5742 56.2414 59.4245 56.5756 59.2266 56.8636C59.0286 57.1515 58.7786 57.3801 58.4766 57.5492C58.1745 57.7182 57.8255 57.8028 57.4297 57.8028ZM65.9531 58.8411L67.9531 52.3418L70.0078 58.8411H71.1797L73.6406 50.2652H72.1953L70.5703 56.82L68.5625 50.2652H67.3984L65.4297 56.6852L63.7656 50.2652H62.3281L64.7812 58.8411H65.9531ZM80.7969 58.8411V54.3471L80.6484 49.5202L84.375 58.8411H85.5234L89.2578 49.4964L89.1172 54.3471V58.8411H90.6172V47.3009H88.6719L84.9531 56.7169L81.2344 47.3009H79.2969V58.8411H80.7969ZM95.6484 58.9996C95.9089 58.9996 96.1562 58.9719 96.3906 58.9164C96.625 58.8609 96.8425 58.7843 97.043 58.6865C97.2435 58.5888 97.4284 58.4752 97.5977 58.3457C97.7669 58.2162 97.9193 58.0802 98.0547 57.9375C98.0755 58.1119 98.1016 58.2797 98.1328 58.4408C98.1641 58.602 98.2057 58.7354 98.2578 58.8411H99.7734V58.7143C99.6745 58.4818 99.6003 58.2057 99.5508 57.886C99.5013 57.5663 99.4766 57.2612 99.4766 56.9706V52.9838C99.4766 52.503 99.3984 52.0829 99.2422 51.7236C99.0859 51.3643 98.8698 51.0644 98.5938 50.824C98.3177 50.5836 97.9857 50.4039 97.5977 50.285C97.2096 50.1662 96.7865 50.1067 96.3281 50.1067C95.8177 50.1067 95.3555 50.182 94.9414 50.3326C94.5273 50.4832 94.1745 50.6787 93.8828 50.9191C93.5911 51.1595 93.3659 51.4303 93.207 51.7315C93.0482 52.0327 92.9688 52.3365 92.9688 52.643H94.4219C94.4219 52.4633 94.4661 52.2916 94.5547 52.1278C94.6432 51.964 94.7669 51.82 94.9258 51.6959C95.0846 51.5717 95.276 51.4726 95.5 51.3986C95.724 51.3247 95.9714 51.2877 96.2422 51.2877C96.8307 51.2877 97.276 51.4396 97.5781 51.7434C97.8802 52.0472 98.0312 52.4554 98.0312 52.968V53.6417H96.5938C96.0156 53.6417 95.4922 53.7024 95.0234 53.824C94.5547 53.9455 94.1549 54.1252 93.8242 54.3629C93.4935 54.6007 93.2396 54.8953 93.0625 55.2467C92.8854 55.5981 92.7969 56.0036 92.7969 56.4633C92.7969 56.8173 92.8646 57.1489 93 57.458C93.1354 57.7671 93.3268 58.0353 93.5742 58.2625C93.8216 58.4897 94.1211 58.6693 94.4727 58.8014C94.8242 58.9335 95.2161 58.9996 95.6484 58.9996ZM95.8594 57.7235C95.5938 57.7235 95.3607 57.6852 95.1602 57.6086C94.9596 57.532 94.7904 57.4289 94.6523 57.2995C94.5143 57.17 94.4115 57.0155 94.3438 56.8358C94.276 56.6562 94.2422 56.4633 94.2422 56.2572C94.2422 55.7288 94.4661 55.3339 94.9141 55.0723C95.362 54.8107 96 54.68 96.8281 54.68H98.0312V56.4395C97.9531 56.6033 97.8451 56.7618 97.707 56.9151C97.569 57.0683 97.4062 57.2044 97.2188 57.3233C97.0312 57.4422 96.8229 57.5386 96.5938 57.6126C96.3646 57.6865 96.1198 57.7235 95.8594 57.7235ZM104.211 58.9996C104.471 58.9996 104.693 58.9811 104.875 58.9441C105.057 58.9071 105.206 58.8728 105.32 58.8411V57.6522C105.247 57.668 105.145 57.6879 105.012 57.7116C104.879 57.7354 104.753 57.7473 104.633 57.7473C104.513 57.7473 104.397 57.7354 104.285 57.7116C104.173 57.6879 104.074 57.639 103.988 57.565C103.902 57.491 103.833 57.3867 103.781 57.2519C103.729 57.1172 103.703 56.9389 103.703 56.7169V51.3986H105.281V50.2652H103.703V48.1886H102.258V50.2652H100.719V51.3986H102.258V56.709C102.258 57.137 102.31 57.4976 102.414 57.7909C102.518 58.0842 102.659 58.3206 102.836 58.5003C103.013 58.6799 103.22 58.8081 103.457 58.8847C103.694 58.9613 103.945 58.9996 104.211 58.9996ZM109.438 58.9996C109.698 58.9996 109.919 58.9811 110.102 58.9441C110.284 58.9071 110.432 58.8728 110.547 58.8411V57.6522C110.474 57.668 110.371 57.6879 110.238 57.7116C110.105 57.7354 109.979 57.7473 109.859 57.7473C109.74 57.7473 109.624 57.7354 109.512 57.7116C109.4 57.6879 109.301 57.639 109.215 57.565C109.129 57.491 109.06 57.3867 109.008 57.2519C108.956 57.1172 108.93 56.9389 108.93 56.7169V51.3986H110.508V50.2652H108.93V48.1886H107.484V50.2652H105.945V51.3986H107.484V56.709C107.484 57.137 107.536 57.4976 107.641 57.7909C107.745 58.0842 107.885 58.3206 108.062 58.5003C108.24 58.6799 108.447 58.8081 108.684 58.8847C108.921 58.9613 109.172 58.9996 109.438 58.9996ZM115.703 58.9996C116.125 58.9996 116.503 58.9534 116.836 58.8609C117.169 58.7684 117.465 58.6442 117.723 58.4884C117.98 58.3325 118.206 58.1555 118.398 57.9573C118.591 57.7592 118.755 57.5544 118.891 57.3431L118.008 56.6456C117.742 56.9943 117.432 57.2744 117.078 57.4857C116.724 57.6971 116.292 57.8028 115.781 57.8028C115.396 57.8028 115.051 57.7288 114.746 57.5809C114.441 57.4329 114.181 57.2321 113.965 56.9785C113.749 56.7249 113.582 56.4263 113.465 56.0829C113.348 55.7394 113.284 55.3695 113.273 54.9732H119V54.3154C119 53.713 118.932 53.1555 118.797 52.643C118.661 52.1305 118.452 51.6866 118.168 51.3114C117.884 50.9363 117.523 50.6417 117.086 50.4277C116.648 50.2137 116.128 50.1067 115.523 50.1067C115.044 50.1067 114.583 50.2058 114.141 50.4039C113.698 50.6021 113.305 50.8887 112.961 51.2639C112.617 51.6391 112.342 52.1014 112.137 52.6509C111.931 53.2005 111.828 53.824 111.828 54.5214V54.8543C111.828 55.4567 111.919 56.0115 112.102 56.5188C112.284 57.026 112.544 57.4633 112.883 57.8305C113.221 58.1978 113.629 58.4844 114.105 58.6905C114.582 58.8966 115.115 58.9996 115.703 58.9996ZM117.555 53.7685H113.32C113.367 53.3722 113.454 53.0208 113.582 52.7143C113.71 52.4079 113.87 52.1516 114.062 51.9455C114.255 51.7394 114.474 51.5822 114.719 51.4739C114.964 51.3656 115.232 51.3114 115.523 51.3114C115.893 51.3114 116.203 51.3801 116.453 51.5175C116.703 51.6549 116.908 51.8346 117.066 52.0565C117.225 52.2784 117.342 52.5294 117.418 52.8094C117.493 53.0895 117.539 53.3722 117.555 53.6575V53.7685ZM122.117 58.8411V52.754C122.273 52.3788 122.509 52.0803 122.824 51.8583C123.139 51.6364 123.547 51.5254 124.047 51.5254C124.182 51.5254 124.303 51.5294 124.41 51.5373C124.517 51.5453 124.633 51.5598 124.758 51.5809V50.2177C124.706 50.1912 124.612 50.1662 124.477 50.1424C124.341 50.1186 124.221 50.1067 124.117 50.1067C123.648 50.1067 123.25 50.2097 122.922 50.4158C122.594 50.6219 122.32 50.9019 122.102 51.256L122.078 50.2652H120.672V58.8411H122.117ZM129.195 58.9996C129.685 58.9996 130.13 58.9375 130.531 58.8133C130.932 58.6892 131.276 58.5161 131.562 58.2942C131.849 58.0723 132.069 57.8054 132.223 57.4937C132.376 57.1819 132.453 56.8385 132.453 56.4633C132.453 56.1146 132.392 55.8081 132.27 55.5439C132.147 55.2797 131.961 55.0459 131.711 54.8424C131.461 54.639 131.146 54.4607 130.766 54.3074C130.385 54.1542 129.938 54.0168 129.422 53.8953C129.021 53.8055 128.694 53.717 128.441 53.6298C128.189 53.5426 127.99 53.4475 127.844 53.3444C127.698 53.2414 127.599 53.1265 127.547 52.9997C127.495 52.8729 127.469 52.7302 127.469 52.5717C127.469 52.4132 127.5 52.2586 127.562 52.108C127.625 51.9574 127.724 51.8227 127.859 51.7038C127.995 51.5849 128.168 51.4898 128.379 51.4184C128.59 51.3471 128.846 51.3114 129.148 51.3114C129.435 51.3114 129.688 51.355 129.906 51.4422C130.125 51.5294 130.31 51.643 130.461 51.783C130.612 51.9231 130.727 52.0816 130.805 52.2586C130.883 52.4356 130.922 52.6113 130.922 52.7857H132.375C132.375 52.4158 132.302 52.0684 132.156 51.7434C132.01 51.4184 131.798 51.1344 131.52 50.8914C131.241 50.6483 130.902 50.4568 130.504 50.3167C130.105 50.1767 129.654 50.1067 129.148 50.1067C128.674 50.1067 128.245 50.1741 127.859 50.3088C127.474 50.4436 127.146 50.6259 126.875 50.8557C126.604 51.0856 126.395 51.3524 126.246 51.6562C126.098 51.9601 126.023 52.2811 126.023 52.6192C126.023 52.9732 126.094 53.2824 126.234 53.5466C126.375 53.8108 126.577 54.0393 126.84 54.2322C127.103 54.425 127.422 54.5901 127.797 54.7275C128.172 54.8649 128.594 54.9838 129.062 55.0842C129.479 55.174 129.815 55.2718 130.07 55.3774C130.326 55.4831 130.522 55.5981 130.66 55.7222C130.798 55.8464 130.891 55.9785 130.938 56.1185C130.984 56.2585 131.008 56.4078 131.008 56.5663C131.008 56.7407 130.969 56.9032 130.891 57.0538C130.812 57.2044 130.697 57.3352 130.543 57.4461C130.389 57.5571 130.201 57.6443 129.977 57.7077C129.753 57.7711 129.492 57.8028 129.195 57.8028C128.966 57.8028 128.737 57.7764 128.508 57.7235C128.279 57.6707 128.068 57.5809 127.875 57.454C127.682 57.3272 127.522 57.1621 127.395 56.9587C127.267 56.7552 127.195 56.5029 127.18 56.2017H125.734C125.734 56.5558 125.81 56.9005 125.961 57.2361C126.112 57.5716 126.333 57.8702 126.625 58.1317C126.917 58.3933 127.277 58.6033 127.707 58.7618C128.137 58.9203 128.633 58.9996 129.195 58.9996Z" fill="white"/>
<path d="M134.092 51.7383V49.8777H134.757V49.5745H133.065V49.8777H133.725V51.7383H134.092ZM136.893 50.0725L136.856 51.025V51.7383H137.226V49.5745H136.747L136.133 51.233L135.518 49.5745H135.037V51.7383H135.406V51.025L135.37 50.0724L135.998 51.7383H136.263L136.893 50.0725Z" fill="white"/>
</svg>
